<svg xmlns="http://www.w3.org/2000/svg" xmlns:xlink="http://www.w3.org/1999/xlink" version="1.1" x="0px" y="0px" viewBox="0 0 100 125" style="enable-background:new 0 0 100 100;" xml:space="preserve"><path d="M71.9,10.4L50,32.3L28.1,10.4c-2.9-2.9-7.7-2.9-10.6,0l-6.4,6.4c-2.9,2.9-2.9,7.7,0,10.6L33,49.3L11.2,71.2  c-2.9,2.9-2.9,7.7,0,10.6l6.4,6.4c2.9,2.9,7.7,2.9,10.6,0L50,66.3l21.9,21.9c2.9,2.9,7.7,2.9,10.6,0l6.4-6.4c2.9-2.9,2.9-7.7,0-10.6  L67,49.3l21.9-21.9c2.9-2.9,2.9-7.7,0-10.6l-6.4-6.4C79.6,7.5,74.8,7.5,71.9,10.4z"/><text x="0" y="115" fill="#000000" font-size="5px" font-weight="bold" font-family="'Helvetica Neue', Helvetica, Arial-Unicode, Arial, Sans-serif">Created by Viktor Vorobyev</text><text x="0" y="120" fill="#000000" font-size="5px" font-weight="bold" font-family="'Helvetica Neue', Helvetica, Arial-Unicode, Arial, Sans-serif">from the Noun Project</text></svg>